# Exported from Wings 3D 1.5.4
mtllib coriolis.mtl
o Cube1
#24 vertices, 14 faces
v -1.00000000 -1.00000000 0.0000000e+0
v -1.00000000 0.0000000e+0 -1.00000000
v 0.0000000e+0 -1.00000000 -1.00000000
v -1.00000000 -1.00000000 0.0000000e+0
v -1.00000000 0.0000000e+0 1.00000000
v 0.0000000e+0 -1.00000000 1.00000000
v -1.00000000 0.0000000e+0 -1.00000000
v 0.0000000e+0 1.00000000 -1.00000000
v -1.00000000 1.00000000 0.0000000e+0
v -1.00000000 0.0000000e+0 1.00000000
v -1.00000000 1.00000000 0.0000000e+0
v 0.0000000e+0 1.00000000 1.00000000
v 0.0000000e+0 -1.00000000 -1.00000000
v 1.00000000 -1.00000000 0.0000000e+0
v 1.00000000 0.0000000e+0 -1.00000000
v 0.0000000e+0 -1.00000000 1.00000000
v 1.00000000 0.0000000e+0 1.00000000
v 1.00000000 -1.00000000 0.0000000e+0
v 0.0000000e+0 1.00000000 -1.00000000
v 1.00000000 0.0000000e+0 -1.00000000
v 1.00000000 1.00000000 0.0000000e+0
v 0.0000000e+0 1.00000000 1.00000000
v 1.00000000 1.00000000 0.0000000e+0
v 1.00000000 0.0000000e+0 1.00000000
vn -0.68455032 -0.68455032 -0.25056281
vn -0.68455032 -0.25056281 -0.68455032
vn -0.25056281 -0.68455032 -0.68455032
vn -0.68455032 -0.68455032 0.25056281
vn -0.68455032 -0.25056281 0.68455032
vn -0.25056281 -0.68455032 0.68455032
vn -0.68455032 0.25056281 -0.68455032
vn -0.25056281 0.68455032 -0.68455032
vn -0.68455032 0.68455032 -0.25056281
vn -0.68455032 0.25056281 0.68455032
vn -0.68455032 0.68455032 0.25056281
vn -0.25056281 0.68455032 0.68455032
vn 0.25056281 -0.68455032 -0.68455032
vn 0.68455032 -0.68455032 -0.25056281
vn 0.68455032 -0.25056281 -0.68455032
vn 0.25056281 -0.68455032 0.68455032
vn 0.68455032 -0.25056281 0.68455032
vn 0.68455032 -0.68455032 0.25056281
vn 0.25056281 0.68455032 -0.68455032
vn 0.68455032 0.25056281 -0.68455032
vn 0.68455032 0.68455032 -0.25056281
vn 0.25056281 0.68455032 0.68455032
vn 0.68455032 0.68455032 0.25056281
vn 0.68455032 0.25056281 0.68455032
g Cube1_default
usemtl default
s 1
f 1//1 2//2 3//3
f 1//1 3//3 13//13 14//14 18//18 16//16 6//6 4//4
f 4//4 5//5 10//10 11//11 9//9 7//7 2//2 1//1
f 4//4 6//6 5//5
f 5//5 6//6 16//16 17//17 24//24 22//22 12//12 10//10
f 7//7 8//8 19//19 20//20 15//15 13//13 3//3 2//2
f 7//7 9//9 8//8
f 10//10 12//12 11//11
f 11//11 12//12 22//22 23//23 21//21 19//19 8//8 9//9
f 13//13 15//15 14//14
f 14//14 15//15 20//20 21//21 23//23 24//24 17//17 18//18
f 16//16 18//18 17//17
f 19//19 21//21 20//20
f 22//22 24//24 23//23
